<svg width="24" height="24" viewBox="0 0 24 24" fill="none" xmlns="http://www.w3.org/2000/svg">
<path d="M22.392 5.1496C21.928 4.6856 21.16 4.6856 20.696 5.1496L20.3496 5.4952C19.8856 5.9592 19.8856 6.7272 20.3496 7.1912L21.608 8.4504C22.0736 8.9144 22.84 8.9144 23.3056 8.4504L23.6512 8.104C24.1152 7.64 24.1152 6.8736 23.6512 6.408L22.392 5.1496ZM21.8272 5.7152L23.0856 6.9736C23.2472 7.1352 23.2472 7.3776 23.0856 7.5392L22.7392 7.8856C22.5792 8.0472 22.3352 8.0472 22.1736 7.8856L20.9152 6.6272C20.7536 6.4656 20.7536 6.2232 20.9152 6.0616L21.2616 5.7152C21.4232 5.5536 21.6656 5.5536 21.8272 5.7152ZM19.0992 7.2032C18.8592 7.184 18.5664 7.2512 18.3488 7.4704L10.1168 15.7168C9.9672 15.8688 9.8088 16.0256 9.7144 16.2704C9.6208 16.5152 9.6008 16.7824 9.6008 17.2V18.4C9.6008 18.804 9.9448 19.2 10.4008 19.2H11.6008C12.02 19.2 12.2928 19.176 12.5368 19.0816C12.7816 18.9856 12.9392 18.828 13.084 18.6832L21.316 10.4352C21.712 10.0384 21.676 9.4304 21.316 9.0704L19.716 7.4704C19.5464 7.3024 19.34 7.2224 19.1 7.2032H19.0992ZM19.1488 8.0352L20.7488 9.6352C20.7792 9.6656 20.8096 9.8096 20.7488 9.8704L12.5168 18.1168C12.3728 18.2608 12.3304 18.3032 12.2472 18.336C12.1632 18.368 11.9816 18.4 11.5992 18.4H10.4V17.2C10.4 16.816 10.4304 16.636 10.4616 16.556C10.492 16.476 10.5336 16.4336 10.6832 16.284L18.9152 8.036C18.9872 7.964 19.1128 8 19.1488 8.036V8.0352ZM3.6 8.8H14C14.2216 8.8 14.4 8.9784 14.4 9.2C14.4 9.4216 14.2216 9.6 14 9.6H3.6C3.3784 9.6 3.2 9.4216 3.2 9.2C3.2 8.9784 3.3784 8.8 3.6 8.8ZM3.6 6.4H14C14.2216 6.4 14.4 6.5784 14.4 6.8C14.4 7.0216 14.2216 7.2 14 7.2H3.6C3.3784 7.2 3.2 7.0216 3.2 6.8C3.2 6.5784 3.3784 6.4 3.6 6.4ZM3.6 4H14C14.2216 4 14.4 4.1784 14.4 4.4C14.4 4.6216 14.2216 4.8 14 4.8H3.6C3.3784 4.8 3.2 4.6216 3.2 4.4C3.2 4.1784 3.3784 4 3.6 4ZM1.2 0C0.5424 0 0 0.5424 0 1.2V22.8C0 23.4576 0.5424 24 1.2 24H16.4C17.0576 24 17.6 23.4576 17.6 22.8V16.4C17.6 15.8656 16.8 15.8816 16.8 16.4V22.8C16.8 23.0288 16.6288 23.2 16.4 23.2H1.2C0.9712 23.2 0.8 23.0288 0.8 22.8V1.2C0.8 0.9712 0.9712 0.8 1.2 0.8H16.4C16.6288 0.8 16.8 0.9712 16.8 1.2V6.8C16.8 7.3376 17.6 7.3184 17.6 6.8V1.2C17.6 0.5424 17.0576 0 16.4 0H1.2Z" fill="#4154F1"/>
</svg>
