<svg width="24" height="24" viewBox="0 0 24 24" fill="none" xmlns="http://www.w3.org/2000/svg">
<g clip-path="url(#clip0_3859_11411)">
<path d="M12.0018 11.3334C12.9857 11.3347 13.9479 11.0441 14.7667 10.4985C15.5854 9.95279 16.2239 9.17653 16.6013 8.26789C16.9788 7.35925 17.0782 6.35907 16.8871 5.39389C16.6959 4.42872 16.2228 3.54194 15.5275 2.84574C14.8323 2.14954 13.9461 1.67521 12.9812 1.48277C12.0163 1.29033 11.016 1.38843 10.1068 1.76465C9.19767 2.14088 8.42055 2.77832 7.87378 3.59632C7.32701 4.41433 7.03516 5.37613 7.03516 6.36005C7.03516 7.67791 7.55821 8.94188 8.48945 9.87437C9.42069 10.8069 10.684 11.3316 12.0018 11.3334ZM12.0018 2.71338C12.7223 2.71207 13.427 2.92459 14.0266 3.32406C14.6262 3.72352 15.0938 4.29194 15.3701 4.95733C15.6465 5.62273 15.7191 6.35516 15.5789 7.06187C15.4386 7.76858 15.0918 8.41778 14.5824 8.92725C14.0729 9.43671 13.4237 9.78352 12.717 9.92376C12.0103 10.064 11.2778 9.99135 10.6124 9.71502C9.94704 9.43869 9.37862 8.97111 8.97916 8.3715C8.5797 7.77188 8.36717 7.06721 8.36849 6.34672C8.37025 5.38364 8.75361 4.46051 9.43461 3.77951C10.1156 3.09851 11.0387 2.71515 12.0018 2.71338Z" fill="#008734"/>
<path d="M4.00172 21.26V17.18C5.03097 16.0998 6.27376 15.2456 7.65104 14.6717C9.02832 14.0978 10.51 13.8169 12.0017 13.8467C14.0435 13.8192 16.0531 14.3567 17.8084 15.4L18.7084 14.3933C16.7016 13.1293 14.3733 12.4697 12.0017 12.4933C10.2665 12.4491 8.54294 12.7883 6.95385 13.4866C5.36477 14.1849 3.94931 15.2252 2.80839 16.5333C2.71946 16.6479 2.6703 16.7883 2.66839 16.9333V21.26C2.65942 21.6231 2.79469 21.975 3.04458 22.2387C3.29447 22.5023 3.63863 22.6562 4.00172 22.6667H12.2617L10.9951 21.3333L4.00172 21.26Z" fill="#008734"/>
<path d="M19.9992 21.2599V21.3332H17.8992L16.6992 22.6666H19.9992C20.3576 22.6561 20.6977 22.5059 20.9469 22.2481C21.196 21.9902 21.3344 21.6451 21.3326 21.2866V17.4666L19.9992 18.9532V21.2599Z" fill="#008734"/>
<path d="M23.1747 12.4133C23.0428 12.296 22.8698 12.2357 22.6936 12.2457C22.5174 12.2557 22.3524 12.3352 22.2347 12.4667L14.488 21.1333L11.0213 17.4067C10.9644 17.3401 10.895 17.2854 10.8169 17.2458C10.7389 17.2061 10.6538 17.1821 10.5665 17.1753C10.4792 17.1685 10.3914 17.1789 10.3082 17.2061C10.225 17.2332 10.1479 17.2764 10.0813 17.3333C10.0161 17.3926 9.96338 17.4643 9.92605 17.5441C9.88873 17.6239 9.8676 17.7103 9.86388 17.7983C9.86016 17.8864 9.87392 17.9743 9.90438 18.0569C9.93484 18.1396 9.98138 18.2154 10.0413 18.28L14.5013 23.08L23.228 13.3333C23.3393 13.2026 23.3958 13.034 23.3859 12.8626C23.3759 12.6913 23.3003 12.5303 23.1747 12.4133Z" fill="#008734"/>
</g>
<defs>
<clipPath id="clip0_3859_11411">
<rect width="24" height="24" fill="white"/>
</clipPath>
</defs>
</svg>
