<svg width="25" height="28" viewBox="0 0 25 28" fill="none" xmlns="http://www.w3.org/2000/svg">
<path d="M14.2857 13.8141C14.6825 13.8141 14.9774 13.4863 14.9774 13.1088C14.9774 12.7064 14.6559 12.4035 14.2857 12.4035H5.48683C5.09222 12.4035 4.79516 12.7313 4.79516 13.1088C4.79516 13.5112 5.11661 13.8141 5.48683 13.8141H14.2857ZM17.1699 4.45988L21.1825 0.133161C21.3355 0.00204826 21.4906 -0.0499447 21.6702 0.0540412L24.898 3.24143C25.0266 3.39741 25.051 3.58052 24.8714 3.76362L20.7835 8.16946L17.1699 4.45988ZM19.4511 9.55518L15.3144 10.4278L15.8375 5.84334L19.4511 9.55518ZM4.24315 2.95886H13.4943L12.8181 4.41692H4.24315C3.47167 4.41692 2.76891 4.74018 2.25681 5.26011C1.7447 5.78004 1.4299 6.49438 1.4299 7.28558V17.6254C1.4299 18.4121 1.74692 19.1309 2.25681 19.6508C2.76669 20.1708 3.46945 20.494 4.24315 20.494H5.06784V20.4963L5.11439 20.4986C5.50678 20.5257 5.80607 20.8738 5.77725 21.2739L5.49792 25.3655L10.814 22.0855C10.9426 21.9544 11.12 21.8752 11.3173 21.8752H19.5908C20.3622 21.8752 21.065 21.5542 21.5771 21.0321C22.087 20.5121 22.404 19.7933 22.404 19.0066V11.4043H23.8849V21.0547C23.9625 23.2316 23.0912 24.4545 19.5775 24.6037L12.428 24.4365L5.17203 27.5719L5.13656 27.6012C4.83728 27.8635 4.38725 27.8273 4.13009 27.5199C4.00372 27.3684 3.9483 27.183 3.95939 26.9999L4.30301 21.9498H4.24537C3.07928 21.9498 2.01738 21.4638 1.24812 20.6794C0.476634 19.8995 0 18.8167 0 17.6276V7.28558C0 6.09652 0.476634 5.01371 1.2459 4.2293C2.01295 3.44488 3.07484 2.95886 4.24315 2.95886ZM17.6665 17.7271C18.0633 17.7271 18.3582 17.3993 18.3582 17.0218C18.3582 16.6172 18.0367 16.3165 17.6665 16.3165H5.48683C5.09222 16.3165 4.79516 16.6443 4.79516 17.0218C4.79516 17.4242 5.11661 17.7271 5.48683 17.7271H17.6665ZM11.171 9.90331C11.5656 9.90331 11.8626 9.57552 11.8626 9.19801C11.8626 8.8205 11.5412 8.49272 11.171 8.49272H5.48683C5.09222 8.49272 4.79516 8.8205 4.79516 9.19801C4.79516 9.60039 5.11661 9.90331 5.48683 9.90331H11.171Z" fill="#FF771D"/>
</svg>
