<svg width="26" height="26" viewBox="0 0 26 26" fill="none" xmlns="http://www.w3.org/2000/svg">
<path d="M21.3536 3.71205H6.49654V13.9264H4.63947V1.85498H23.2109V24.1406H12.9998V22.2835H21.3536V3.71205Z" fill="#4154F1"/>
<path d="M19.4961 5.56909H8.35316V7.42616H19.4961V5.56909ZM19.4961 9.28349H10.2105V11.1406H19.4961V9.28349ZM19.4961 12.9976H13.9246V14.8547H19.4961V12.9976ZM7.42488 14.855C9.98908 14.855 12.0678 16.9337 12.0678 19.4979C12.0678 22.0621 9.98908 24.1408 7.42488 24.1408C4.86068 24.1408 2.78195 22.0621 2.78195 19.4979C2.78195 16.9337 4.86043 14.855 7.42488 14.855ZM7.42488 22.2835C8.96102 22.2835 10.2105 21.0338 10.2105 19.4979C10.2105 17.9617 8.96076 16.7123 7.42488 16.7123C5.88875 16.7123 4.63928 17.962 4.63928 19.4979C4.63902 21.0338 5.88875 22.2835 7.42488 22.2835Z" fill="#4154F1"/>
<path d="M6.72816 17.5723H8.12109V19.7881L6.35924 21.534L5.37891 20.5447L6.72816 19.2077V17.5723Z" fill="#4154F1"/>
</svg>
