<svg width="26" height="26" viewBox="0 0 26 26" fill="none" xmlns="http://www.w3.org/2000/svg">
<path d="M4.64223 3.71205H19.4993V12.9977H21.3564V1.85498H2.78516V24.1406H12.9993V22.2835H4.64223V3.71205Z" fill="#2ECA6A"/>
<path d="M6.5 5.56909H17.6429V7.42616H6.5V5.56909ZM6.5 9.28349H15.7856V11.1406H6.5V9.28349ZM6.5 12.9976H12.0715V14.8547H6.5V12.9976ZM18.5715 13.8571L13.9288 16.4106V21.5177L18.5717 24.0712L23.2144 21.5177V16.4106L18.5715 13.8571ZM21.3573 20.4196L18.5717 21.9516L15.7861 20.4196V17.5088L18.5717 15.9767L21.3573 17.5088V20.4196Z" fill="#2ECA6A"/>
<path d="M17.6445 18.9642C17.6445 19.2104 17.7424 19.4466 17.9165 19.6208C18.0906 19.7949 18.3268 19.8927 18.5731 19.8927C18.8193 19.8927 19.0555 19.7949 19.2296 19.6208C19.4038 19.4466 19.5016 19.2104 19.5016 18.9642C19.5016 18.7179 19.4038 18.4817 19.2296 18.3076C19.0555 18.1335 18.8193 18.0356 18.5731 18.0356C18.3268 18.0356 18.0906 18.1335 17.9165 18.3076C17.7424 18.4817 17.6445 18.7179 17.6445 18.9642Z" fill="#2ECA6A"/>
</svg>
