<svg width="70" height="70" viewBox="0 0 70 70" fill="none" xmlns="http://www.w3.org/2000/svg">
<path fill-rule="evenodd" clip-rule="evenodd" d="M12.1719 32.0789H31.9433V12.3176H37.6372V32.0789H58.1058V37.7729H37.6372V58.2515H31.9433V37.7729H12.1719V32.0789Z" fill="#64A15E"/>
<path d="M35.2041 69.6192C44.0864 69.5344 52.8811 65.8544 59.2046 59.6056C66.7156 52.1823 70.5839 41.2013 69.2355 30.7176C66.9226 12.7503 52.1537 0.558838 34.9828 0.558838C21.9374 0.558838 9.25725 8.71953 3.69556 20.553C-0.560874 29.6122 -0.569499 40.5501 3.69556 49.6265C9.21844 61.3766 21.6888 69.4941 34.7599 69.6192C34.908 69.6207 35.0561 69.6207 35.2041 69.6192ZM34.7973 63.8649C21.5292 63.737 9.15088 53.4761 6.68988 40.3215C4.95338 31.0468 8.22944 21.0116 15.0533 14.425C23.0213 6.73434 35.5419 4.1569 45.9538 8.51684C55.2702 12.4182 62.2421 21.4745 63.5272 31.4521C64.6283 40.0038 61.5592 48.9667 55.5275 55.1422C50.2375 60.5572 42.8186 63.7902 35.1668 63.8649C35.0446 63.8649 34.9209 63.8649 34.7973 63.8649Z" fill="#64A15E"/>
</svg>
