<svg width="20" height="20" viewBox="0 0 20 20" fill="none" xmlns="http://www.w3.org/2000/svg">
<g clip-path="url(#clip0_3688_6652)">
<path d="M17.5 1.25C17.8315 1.25 18.1495 1.3817 18.3839 1.61612C18.6183 1.85054 18.75 2.16848 18.75 2.5V17.5C18.75 17.8315 18.6183 18.1495 18.3839 18.3839C18.1495 18.6183 17.8315 18.75 17.5 18.75H2.5C2.16848 18.75 1.85054 18.6183 1.61612 18.3839C1.3817 18.1495 1.25 17.8315 1.25 17.5V2.5C1.25 2.16848 1.3817 1.85054 1.61612 1.61612C1.85054 1.3817 2.16848 1.25 2.5 1.25H17.5ZM2.5 0C1.83696 0 1.20107 0.263392 0.732233 0.732233C0.263392 1.20107 0 1.83696 0 2.5L0 17.5C0 18.163 0.263392 18.7989 0.732233 19.2678C1.20107 19.7366 1.83696 20 2.5 20H17.5C18.163 20 18.7989 19.7366 19.2678 19.2678C19.7366 18.7989 20 18.163 20 17.5V2.5C20 1.83696 19.7366 1.20107 19.2678 0.732233C18.7989 0.263392 18.163 0 17.5 0L2.5 0Z" fill="#64A15E"/>
<path d="M6.57058 7.2325C6.56887 7.27287 6.57543 7.31316 6.58987 7.3509C6.6043 7.38863 6.62631 7.42302 6.65452 7.45194C6.68274 7.48085 6.71657 7.5037 6.75394 7.51906C6.79131 7.53442 6.83143 7.54197 6.87183 7.54125H7.90308C8.07558 7.54125 8.21308 7.4 8.23558 7.22875C8.34808 6.40875 8.91058 5.81125 9.91308 5.81125C10.7706 5.81125 11.5556 6.24 11.5556 7.27125C11.5556 8.065 11.0881 8.43 10.3493 8.985C9.50808 9.59625 8.84183 10.31 8.88933 11.4688L8.89308 11.74C8.89439 11.822 8.92789 11.9002 8.98636 11.9577C9.04482 12.0153 9.12356 12.0475 9.20558 12.0475H10.2193C10.3022 12.0475 10.3817 12.0146 10.4403 11.956C10.4989 11.8974 10.5318 11.8179 10.5318 11.735V11.6038C10.5318 10.7063 10.8731 10.445 11.7943 9.74625C12.5556 9.1675 13.3493 8.525 13.3493 7.17625C13.3493 5.2875 11.7543 4.375 10.0081 4.375C8.42433 4.375 6.68933 5.1125 6.57058 7.2325ZM8.51683 14.4362C8.51683 15.1025 9.04808 15.595 9.77933 15.595C10.5406 15.595 11.0643 15.1025 11.0643 14.4362C11.0643 13.7463 10.5393 13.2613 9.77808 13.2613C9.04808 13.2613 8.51683 13.7463 8.51683 14.4362Z" fill="#64A15E"/>
</g>
<defs>
<clipPath id="clip0_3688_6652">
<rect width="20" height="20" fill="white"/>
</clipPath>
</defs>
</svg>
